<svg width="1024" height="1024" viewBox="0 0 1024 1024" fill="none" xmlns="http://www.w3.org/2000/svg">
  <rect width="1024" height="1024" rx="220" fill="#000000"/>
  <defs>
    <linearGradient id="bolt" x1="222" y1="805" x2="814" y2="182" gradientUnits="userSpaceOnUse">
      <stop offset="0" stop-color="#00E5FF"/>
      <stop offset="0.52" stop-color="#2A7BFF"/>
      <stop offset="1" stop-color="#FF2BD6"/>
    </linearGradient>
    <linearGradient id="glass" x1="304" y1="226" x2="757" y2="723" gradientUnits="userSpaceOnUse">
      <stop stop-color="#FFFFFF" stop-opacity="0.72"/>
      <stop offset="0.45" stop-color="#FFFFFF" stop-opacity="0.12"/>
      <stop offset="1" stop-color="#FFFFFF" stop-opacity="0.04"/>
    </linearGradient>
    <filter id="glow" x="24" y="44" width="976" height="928" filterUnits="userSpaceOnUse" color-interpolation-filters="sRGB">
      <feGaussianBlur stdDeviation="38" result="blur"/>
      <feColorMatrix in="blur" type="matrix" values="0 0 0 0 0.04 0 0 0 0 0.60 0 0 0 0 1 0 0 0 0.95 0"/>
      <feBlend in2="SourceGraphic" mode="screen"/>
    </filter>
    <filter id="magentaGlow" x="112" y="80" width="800" height="800" filterUnits="userSpaceOnUse">
      <feGaussianBlur stdDeviation="24"/>
      <feColorMatrix type="matrix" values="1 0 0 0 1 0 0 0 0 0.10 0 0 0 0 0.85 0 0 0 0.75 0"/>
    </filter>
  </defs>
  <path d="M182 711C331 617 507 520 795 278" stroke="#00E5FF" stroke-width="22" stroke-linecap="round" opacity="0.4"/>
  <path d="M235 792C383 697 559 600 846 358" stroke="#FF2BD6" stroke-width="18" stroke-linecap="round" opacity="0.36"/>
  <path filter="url(#magentaGlow)" d="M349 741L477 543H335L650 169L587 419H724L349 741Z" fill="#FF2BD6" opacity="0.38"/>
  <path filter="url(#glow)" d="M323 779L455 543H309L623 180L571 409H736L538 609V467L323 779Z" fill="url(#bolt)"/>
  <path d="M538 609V467L736 409L571 409L623 180L309 543H455L323 779L538 609Z" fill="url(#glass)" opacity="0.56"/>
  <path d="M542 188L624 104L708 188" stroke="#FF2BD6" stroke-width="34" stroke-linecap="round" stroke-linejoin="round"/>
  <path d="M624 110V315" stroke="#FF2BD6" stroke-width="34" stroke-linecap="round"/>
  <path d="M375 305C425 244 489 202 568 178" stroke="#FFFFFF" stroke-width="18" stroke-linecap="round" opacity="0.42"/>
  <path d="M224 708C331 645 407 606 502 558" stroke="#FFFFFF" stroke-width="11" stroke-linecap="round" opacity="0.32"/>
</svg>

